<?xml version="1.0" standalone="no"?>
<!DOCTYPE svg PUBLIC "-//W3C//DTD SVG 20010904//EN"
 "http://www.w3.org/TR/2001/REC-SVG-20010904/DTD/svg10.dtd">
<svg version="1.0" xmlns="http://www.w3.org/2000/svg"
 width="574.000000pt" height="301.000000pt" viewBox="0 0 574.000000 301.000000"
 preserveAspectRatio="xMidYMid meet">

<g transform="translate(0.000000,301.000000) scale(0.100000,-0.100000)"
fill="#000000" stroke="none">
<path d="M0 1505 l0 -1505 2870 0 2870 0 0 1505 0 1505 -2870 0 -2870 0 0
-1505z m1689 1104 c14 -15 28 -20 45 -17 36 7 40 -12 31 -161 -8 -139 -72
-523 -75 -456 l-3 40 -6 -40 c-3 -22 -3 -41 2 -43 4 -2 7 -8 7 -13 0 -6 -4 -8
-9 -5 -4 3 -6 -6 -3 -19 3 -17 0 -25 -10 -25 -10 0 -13 -11 -10 -41 3 -25 0
-39 -5 -36 -5 3 -10 -8 -11 -26 -1 -51 -5 -67 -14 -67 -5 0 -6 -4 -3 -10 3 -5
2 -10 -3 -10 -5 0 -14 -11 -20 -25 -9 -20 -9 -27 1 -30 6 -2 55 -16 107 -31
52 -14 96 -27 97 -28 1 -1 -20 -82 -47 -179 -28 -97 -50 -184 -50 -191 0 -8
-4 -17 -9 -20 -4 -3 -70 12 -146 34 -76 22 -140 38 -142 37 -4 -4 205 -85 239
-93 20 -4 30 -15 36 -37 12 -45 29 -45 24 0 -13 113 32 -89 54 -241 6 -44 5
-48 -10 -43 -11 4 -15 3 -11 -4 4 -5 10 -31 15 -57 l8 -47 2 50 c2 50 2 49 20
-35 37 -176 40 -193 39 -214 0 -21 -1 -21 -10 -1 -9 20 -5 -43 7 -112 6 -32 5
-33 -27 -33 -19 0 -52 -5 -74 -10 -220 -50 -437 -62 -705 -40 -63 6 -177 13
-252 17 l-137 6 4 46 c16 185 23 294 22 346 -2 78 30 414 43 452 13 35 102 83
155 83 l35 0 0 -346 c0 -219 4 -352 10 -365 13 -24 72 -26 91 -2 11 13 15 80
17 317 1 166 3 308 4 316 0 8 -3 60 -7 115 -4 61 -3 110 3 125 l10 25 11 -29
c6 -15 12 -49 14 -75 1 -25 7 -49 12 -53 6 -5 5 -8 -2 -8 -9 0 -7 -6 5 -18 11
-12 20 -14 24 -8 5 8 8 7 8 -1 0 -6 14 -15 31 -18 l32 -7 -7 -134 c-3 -74 -4
-134 -1 -134 3 0 10 10 16 23 8 18 9 16 4 -13 -4 -30 -3 -32 7 -15 10 18 19
107 22 238 0 26 5 47 9 47 5 0 6 4 2 9 -3 5 -1 12 5 16 6 3 13 -1 16 -9 3 -9
10 -13 15 -10 10 6 5 -262 -5 -321 -3 -16 -8 -59 -11 -95 -11 -121 -25 -311
-25 -326 0 -7 -4 -14 -10 -14 -5 0 -9 36 -8 85 1 47 5 85 10 85 5 0 4 8 -1 19
-13 24 -10 184 3 193 7 5 6 8 -2 8 -7 0 -11 4 -8 9 3 4 -1 17 -9 27 -13 18
-15 18 -32 1 -13 -13 -18 -34 -18 -90 -2 -214 -4 -237 -22 -237 -16 -1 -16 -2
-2 -10 13 -7 15 -20 12 -55 -6 -52 11 -86 55 -109 25 -13 30 -12 48 2 32 25
34 41 44 247 5 104 12 246 15 315 4 69 10 139 15 155 5 17 8 48 7 69 -2 35 1
41 23 47 14 4 18 7 10 8 -8 1 -67 17 -131 37 l-116 36 -29 62 c-17 33 -28 71
-26 84 6 37 31 39 59 3 32 -40 73 -42 102 -5 24 30 26 55 10 87 -16 29 -28 37
-61 37 -26 0 -76 -36 -65 -46 10 -10 67 -22 62 -13 -4 5 -2 9 3 9 14 0 35 -28
28 -38 -7 -12 -57 -6 -66 8 -6 10 -25 10 -101 1 -14 -2 -20 -57 -20 -179 -1
-81 -5 -132 -12 -141 -9 -12 -9 -13 1 -7 9 6 12 -5 11 -46 -1 -29 -5 -62 -10
-73 -9 -23 -10 -18 -14 60 -2 28 -3 51 -4 53 -1 1 -1 5 -2 10 -1 4 -5 15 -10
25 -7 12 -6 17 3 17 11 0 11 2 0 8 -9 7 -10 15 -3 35 6 15 8 27 5 27 -2 0 2
12 10 28 14 27 11 62 -10 131 -5 17 -2 26 10 33 9 5 16 13 16 19 0 5 -12 2
-26 -8 -24 -15 -27 -15 -38 -1 -10 13 -16 14 -34 4 -24 -13 -20 -29 4 -19 20
8 17 -13 -3 -23 -10 -4 -21 -7 -24 -6 -4 1 -12 -19 -19 -43 -7 -25 -16 -42
-21 -39 -5 3 -9 -4 -9 -15 0 -18 7 -14 43 22 l42 42 6 -35 5 -35 19 38 c25 49
35 47 35 -7 0 -41 -34 -106 -47 -92 -3 3 -17 -4 -32 -15 -15 -12 -27 -16 -29
-10 -2 6 -8 9 -13 5 -5 -3 -9 -1 -9 4 0 6 -16 -6 -35 -25 -21 -21 -41 -33 -50
-29 -8 3 -18 0 -22 -7 -5 -7 -19 -21 -32 -32 l-24 -20 11 21 c6 11 18 26 26
33 8 6 22 45 31 86 16 73 82 195 105 195 6 0 8 5 5 10 -3 6 0 10 7 10 9 0 9 3
2 8 -13 8 -35 95 -74 287 -26 128 -29 166 -35 437 l-7 296 54 6 c65 7 633 36
778 39 58 2 106 4 107 5 1 1 11 -8 22 -19z m-767 -1131 c-7 -7 -12 -8 -12 -2
0 14 12 26 19 19 2 -3 -1 -11 -7 -17z m-289 -293 c-3 -9 -8 -14 -10 -11 -3 3
-2 9 2 15 9 16 15 13 8 -4z"/>
<path d="M1667 2485 c-4 -69 -2 -135 3 -147 6 -16 9 25 9 125 1 81 -1 147 -2
147 -2 0 -7 -56 -10 -125z"/>
<path d="M1743 2490 c0 -36 2 -50 4 -32 2 17 2 47 0 65 -2 17 -4 3 -4 -33z"/>
<path d="M836 2484 c-11 -105 -26 -328 -25 -374 l2 -45 7 35 c4 19 8 30 9 23
1 -7 22 -12 59 -12 31 0 91 -9 132 -20 55 -14 77 -16 82 -8 18 28 6 -41 -12
-71 -27 -44 -25 -48 9 -20 28 21 30 28 30 93 0 39 -8 101 -18 140 -11 39 -34
123 -52 188 -17 64 -36 117 -42 117 -5 0 -7 -15 -4 -37 3 -21 9 -72 13 -113 7
-69 6 -73 -9 -58 -19 18 -22 38 -7 38 6 0 10 5 10 11 0 5 -4 8 -9 4 -11 -6
-17 11 -26 75 -9 59 -15 80 -24 80 -4 0 -6 -36 -3 -80 3 -53 1 -80 -6 -80 -13
0 -18 17 -31 99 -6 35 -13 66 -16 69 -3 3 -5 -34 -5 -81 0 -55 -4 -87 -11 -87
-5 0 -7 5 -4 10 3 6 2 10 -3 10 -5 0 -13 28 -16 63 -10 89 -22 102 -30 31z
m19 -84 c3 -5 1 -10 -4 -10 -6 0 -11 5 -11 10 0 6 2 10 4 10 3 0 8 -4 11 -10z
m55 -135 c0 -50 -4 -87 -11 -91 -7 -4 -10 15 -7 65 3 39 1 71 -4 71 -9 0 -11
34 -2 43 17 16 24 -11 24 -88z m56 44 c1 -24 0 -32 -3 -16 -2 15 -9 25 -14 22
-5 -4 -9 6 -9 20 0 47 25 22 26 -26z m-116 -9 c0 -5 -2 -10 -4 -10 -3 0 -8 5
-11 10 -3 6 -1 10 4 10 6 0 11 -4 11 -10z m185 -98 c-3 -13 -9 -22 -12 -18 -9
9 -9 66 0 66 4 0 8 10 9 23 0 12 3 7 5 -12 3 -19 2 -45 -2 -59z m-57 34 c5
-22 -6 -66 -16 -66 -4 0 -8 21 -10 46 -2 33 1 45 10 42 7 -3 15 -13 16 -22z"/>
<path d="M1353 2350 c0 -41 2 -58 4 -37 2 20 2 54 0 75 -2 20 -4 3 -4 -38z"/>
<path d="M1730 2315 c0 -32 2 -56 4 -54 8 7 10 98 3 105 -4 4 -7 -19 -7 -51z"/>
<path d="M1342 2224 c-1 -28 -4 -80 -7 -115 l-4 -64 10 55 c5 30 8 82 6 115
l-3 60 -2 -51z"/>
<path d="M1722 2225 c0 -16 2 -22 5 -12 2 9 2 23 0 30 -3 6 -5 -1 -5 -18z"/>
<path d="M1671 2154 c0 -11 3 -14 6 -6 3 7 2 16 -1 19 -3 4 -6 -2 -5 -13z"/>
<path d="M1690 2076 c0 -13 -3 -31 -6 -40 -3 -9 -2 -16 4 -16 5 0 12 18 14 40
2 22 0 40 -4 40 -5 0 -8 -11 -8 -24z"/>
<path d="M1370 2009 c0 -5 5 -7 10 -4 6 3 10 8 10 11 0 2 -4 4 -10 4 -5 0 -10
-5 -10 -11z"/>
<path d="M869 1967 c27 -33 37 -61 32 -90 -1 -5 3 -6 9 -2 21 13 9 47 -31 88
-39 40 -40 40 -10 4z"/>
<path d="M1132 1975 c-1 -16 3 -48 7 -70 11 -53 12 -5 2 55 -6 34 -9 37 -9 15z"/>
<path d="M1360 1910 c0 -5 5 -10 10 -10 6 0 10 5 10 10 0 6 -4 10 -10 10 -5 0
-10 -4 -10 -10z"/>
<path d="M1151 1844 c0 -11 3 -14 6 -6 3 7 2 16 -1 19 -3 4 -6 -2 -5 -13z"/>
<path d="M1021 1824 c-12 -15 -21 -32 -21 -38 0 -6 9 3 19 21 11 17 30 33 43
36 22 4 22 4 1 6 -13 0 -30 -10 -42 -25z"/>
<path d="M899 1788 c0 -2 -3 -25 -5 -53 -3 -27 -9 -54 -14 -58 -4 -5 -3 -27 3
-49 8 -32 7 -42 -4 -49 -20 -12 -2 -11 23 2 16 8 19 17 14 42 -3 18 -6 62 -7
100 -1 37 -3 67 -5 67 -2 0 -4 -1 -5 -2z"/>
<path d="M1150 1767 c0 -14 5 -29 10 -32 7 -4 8 3 4 22 -9 38 -14 42 -14 10z"/>
<path d="M1095 1724 c-9 -15 -12 -23 -6 -20 11 7 35 46 28 46 -3 0 -12 -12
-22 -26z"/>
<path d="M1011 1622 c-1 -7 -5 -10 -11 -7 -6 3 -7 -1 -4 -10 4 -11 10 -13 16
-7 6 6 8 16 5 24 -4 10 -6 10 -6 0z"/>
<path d="M915 1380 c-14 -16 -20 -17 -27 -8 -6 10 -8 9 -8 -4 0 -30 18 -29 40
2 24 34 22 40 -5 10z"/>
<path d="M1350 1254 c0 -8 5 -12 10 -9 6 3 10 10 10 16 0 5 -4 9 -10 9 -5 0
-10 -7 -10 -16z"/>
<path d="M1375 1100 c-3 -5 -1 -10 4 -10 6 0 11 5 11 10 0 6 -2 10 -4 10 -3 0
-8 -4 -11 -10z"/>
<path d="M1212 1070 c0 -14 2 -19 5 -12 2 6 2 18 0 25 -3 6 -5 1 -5 -13z"/>
<path d="M1395 1000 c-3 -5 -1 -10 4 -10 6 0 11 5 11 10 0 6 -2 10 -4 10 -3 0
-8 -4 -11 -10z"/>
<path d="M1400 950 c0 -5 5 -10 10 -10 6 0 10 5 10 10 0 6 -4 10 -10 10 -5 0
-10 -4 -10 -10z"/>
<path d="M1410 900 c0 -5 5 -10 10 -10 6 0 10 5 10 10 0 6 -4 10 -10 10 -5 0
-10 -4 -10 -10z"/>
<path d="M1091 858 c-2 -41 -21 -85 -30 -69 -5 7 -6 -11 -3 -40 3 -37 2 -50
-7 -45 -18 11 -13 -10 6 -25 9 -8 14 -9 11 -4 -8 13 8 100 25 134 7 15 10 36
6 51 l-7 25 -1 -27z"/>
<path d="M1425 850 c3 -5 8 -10 11 -10 2 0 4 5 4 10 0 6 -5 10 -11 10 -5 0 -7
-4 -4 -10z"/>
<path d="M1435 800 c3 -5 8 -10 11 -10 2 0 4 5 4 10 0 6 -5 10 -11 10 -5 0 -7
-4 -4 -10z"/>
<path d="M1445 761 c-3 -5 -1 -12 5 -16 5 -3 10 1 10 9 0 18 -6 21 -15 7z"/>
<path d="M1455 710 c-3 -5 -1 -10 4 -10 6 0 11 5 11 10 0 6 -2 10 -4 10 -3 0
-8 -4 -11 -10z"/>
<path d="M1465 660 c3 -5 8 -10 11 -10 2 0 4 5 4 10 0 6 -5 10 -11 10 -5 0 -7
-4 -4 -10z"/>
<path d="M1780 648 c0 -15 5 -30 10 -33 13 -8 13 25 0 45 -8 12 -10 9 -10 -12z"/>
<path d="M680 630 c0 -5 5 -10 10 -10 6 0 10 5 10 10 0 6 -4 10 -10 10 -5 0
-10 -4 -10 -10z"/>
<path d="M730 630 c0 -5 5 -10 10 -10 6 0 10 5 10 10 0 6 -4 10 -10 10 -5 0
-10 -4 -10 -10z"/>
<path d="M788 623 c7 -3 16 -2 19 1 4 3 -2 6 -13 5 -11 0 -14 -3 -6 -6z"/>
<path d="M1355 610 c-3 -5 -1 -10 4 -10 6 0 11 5 11 10 0 6 -2 10 -4 10 -3 0
-8 -4 -11 -10z"/>
<path d="M1390 610 c0 -5 5 -10 10 -10 6 0 10 5 10 10 0 6 -4 10 -10 10 -5 0
-10 -4 -10 -10z"/>
<path d="M1070 521 c0 -6 4 -13 10 -16 6 -3 7 1 4 9 -7 18 -14 21 -14 7z"/>
<path d="M1157 410 c23 -24 44 -42 46 -40 2 3 -17 23 -42 44 l-46 40 42 -44z"/>
</g>
</svg>
